<svg xmlns="http://www.w3.org/2000/svg" xmlns:xlink="http://www.w3.org/1999/xlink" viewBox="0 0 226.77 222.74"><defs><style>.cls-1{fill:#17457a;}.cls-2{fill:#6f7070;}.cls-3{fill:url(#linear-gradient);}.cls-4{fill:url(#linear-gradient-2);}.cls-5{fill:url(#linear-gradient-3);}.cls-6{fill:url(#linear-gradient-4);}.cls-7{fill:url(#linear-gradient-5);}.cls-8{fill:url(#linear-gradient-6);}.cls-9{fill:url(#linear-gradient-7);}.cls-10{fill:url(#linear-gradient-8);}.cls-11{fill:url(#linear-gradient-9);}.cls-12{fill:url(#linear-gradient-10);}</style><linearGradient id="linear-gradient" x1="157.83" y1="52.81" x2="128.22" y2="1.54" gradientUnits="userSpaceOnUse"><stop offset="0" stop-color="#6f7070"/><stop offset="1" stop-color="#bbbaba"/></linearGradient><linearGradient id="linear-gradient-2" x1="48.58" y1="92.91" x2="48.58" y2="42.62" gradientUnits="userSpaceOnUse"><stop offset="0" stop-color="#bbbaba"/><stop offset="1" stop-color="#6f7070"/></linearGradient><linearGradient id="linear-gradient-3" x1="100.95" y1="129.81" x2="160.16" y2="129.81" xlink:href="#linear-gradient"/><linearGradient id="linear-gradient-4" x1="111.16" y1="11.88" x2="125.38" y2="11.88" gradientUnits="userSpaceOnUse"><stop offset="0" stop-color="#17457a"/><stop offset="1" stop-color="#3bb9eb"/></linearGradient><linearGradient id="linear-gradient-5" x1="39.93" y1="96.78" x2="54.15" y2="96.78" xlink:href="#linear-gradient-4"/><linearGradient id="linear-gradient-6" x1="144.07" y1="75.94" x2="101.92" y2="2.94" xlink:href="#linear-gradient-2"/><linearGradient id="linear-gradient-7" x1="66.76" y1="123.05" x2="66.76" y2="26.74" xlink:href="#linear-gradient"/><linearGradient id="linear-gradient-8" x1="84.27" y1="106.33" x2="168.56" y2="106.33" xlink:href="#linear-gradient-2"/><linearGradient id="linear-gradient-9" x1="149.07" y1="116.01" x2="163.29" y2="116.01" xlink:href="#linear-gradient-4"/><linearGradient id="linear-gradient-10" x1="84.56" y1="74.89" x2="142.21" y2="74.89" xlink:href="#linear-gradient-4"/></defs><g id="Layer_2" data-name="Layer 2"><g id="Layer_1-2" data-name="Layer 1"><path class="cls-1" d="M0,158.66H15.06a21.6,21.6,0,0,1,9.8,2.15,15.77,15.77,0,0,1,6.64,6.05,18.39,18.39,0,0,1,0,18.06A15.85,15.85,0,0,1,24.86,191a21.6,21.6,0,0,1-9.8,2.14H0Zm14.77,29.05a14.62,14.62,0,0,0,6.67-1.46,10.35,10.35,0,0,0,4.43-4.13,13.28,13.28,0,0,0,0-12.45,10.44,10.44,0,0,0-4.43-4.14,14.62,14.62,0,0,0-6.67-1.45H6.4v23.63Z"/><path class="cls-1" d="M40.36,161.44a3.63,3.63,0,0,1,0-5.26,4,4,0,0,1,2.81-1.06,4.06,4.06,0,0,1,2.8,1,3.24,3.24,0,0,1,1.14,2.53A3.72,3.72,0,0,1,46,161.4a3.86,3.86,0,0,1-2.83,1.1A4,4,0,0,1,40.36,161.44Zm-.29,5.39h6.15v26.29H40.07Z"/><path class="cls-1" d="M69.5,166.54v5.86a7.63,7.63,0,0,0-1.42-.15,7.47,7.47,0,0,0-5.62,2.09,8.38,8.38,0,0,0-2,6v12.75H54.29V166.83h5.86v3.84Q62.81,166.55,69.5,166.54Z"/><path class="cls-1" d="M99.09,182H78.46a7.17,7.17,0,0,0,2.83,4.6,9.3,9.3,0,0,0,5.69,1.7,9.56,9.56,0,0,0,7.14-2.86l3.29,3.79a11.06,11.06,0,0,1-4.48,3.2,17.78,17.78,0,0,1-13.73-.64,12.36,12.36,0,0,1-5.09-4.8,13.52,13.52,0,0,1-1.8-7,13.72,13.72,0,0,1,1.75-6.92,12.37,12.37,0,0,1,4.85-4.8,14.09,14.09,0,0,1,7-1.72,13.82,13.82,0,0,1,6.86,1.7A12,12,0,0,1,97.49,173a14.5,14.5,0,0,1,1.7,7.12C99.19,180.55,99.15,181.16,99.09,182ZM80.9,173.21a7.38,7.38,0,0,0-2.49,4.65H93.33a7.18,7.18,0,0,0-7.43-6.4A7.45,7.45,0,0,0,80.9,173.21Z"/><path class="cls-1" d="M109.82,191.74a12.62,12.62,0,0,1-5.07-4.8,14.18,14.18,0,0,1,0-13.9,12.68,12.68,0,0,1,5-4.78,15.38,15.38,0,0,1,7.36-1.72,14.19,14.19,0,0,1,6.82,1.57,10.25,10.25,0,0,1,4.4,4.53l-4.72,2.76a7.61,7.61,0,0,0-2.83-2.73,8.27,8.27,0,0,0-9.43,1.33,9.07,9.07,0,0,0,0,12,8.3,8.3,0,0,0,9.45,1.33,7.61,7.61,0,0,0,2.83-2.73l4.72,2.75a10.64,10.64,0,0,1-4.45,4.56,14,14,0,0,1-6.77,1.59A15.37,15.37,0,0,1,109.82,191.74Z"/><path class="cls-1" d="M149.84,191.69A7.22,7.22,0,0,1,147.2,193a11.64,11.64,0,0,1-3.27.44,9.3,9.3,0,0,1-6.7-2.26q-2.35-2.26-2.36-6.6V172h-4.33V167h4.33v-6H141v6h7V172h-7v12.51a4.19,4.19,0,0,0,.93,2.93,3.52,3.52,0,0,0,2.71,1,5.4,5.4,0,0,0,3.44-1.08Z"/><path class="cls-1" d="M155.2,161.44a3.63,3.63,0,0,1,0-5.26,4,4,0,0,1,2.81-1.06,4.06,4.06,0,0,1,2.8,1,3.24,3.24,0,0,1,1.14,2.53,3.72,3.72,0,0,1-1.11,2.74,3.86,3.86,0,0,1-2.83,1.1A4,4,0,0,1,155.2,161.44Zm-.29,5.39h6.15v26.29h-6.15Z"/><path class="cls-1" d="M173.76,191.74a12.56,12.56,0,0,1-5-4.8,14.32,14.32,0,0,1,0-13.9,12.58,12.58,0,0,1,5-4.78,16,16,0,0,1,14.42,0,12.64,12.64,0,0,1,5,4.78,14.39,14.39,0,0,1,0,13.9,12.62,12.62,0,0,1-5,4.8,16,16,0,0,1-14.42,0Zm12.8-5.81a9.13,9.13,0,0,0,0-11.91,7.53,7.53,0,0,0-5.62-2.26,7.42,7.42,0,0,0-5.58,2.26,9.19,9.19,0,0,0,0,11.91,7.43,7.43,0,0,0,5.58,2.27A7.54,7.54,0,0,0,186.56,185.93Z"/><path class="cls-1" d="M223.77,169.44q3,2.91,3,8.62v15.06h-6.15V178.85a7.37,7.37,0,0,0-1.63-5.2,6,6,0,0,0-4.62-1.74,7.11,7.11,0,0,0-5.37,2,8.14,8.14,0,0,0-2,5.88v13.29h-6.15V166.83h5.86v3.4a9.63,9.63,0,0,1,3.84-2.76,13.86,13.86,0,0,1,5.21-.93A11,11,0,0,1,223.77,169.44Z"/><path class="cls-2" d="M7.62,211.19a3.93,3.93,0,0,1,1.76,1.46,4.45,4.45,0,0,1,0,4.53,3.84,3.84,0,0,1-1.76,1.48,6.65,6.65,0,0,1-2.71.51H2.22v3.45H0V210.68H4.91A6.65,6.65,0,0,1,7.62,211.19ZM7,216.68a2.43,2.43,0,0,0,0-3.51,3.39,3.39,0,0,0-2.2-.62H2.22v4.75H4.81A3.39,3.39,0,0,0,7,216.68Z"/><path class="cls-2" d="M17.2,213.41v2a2.34,2.34,0,0,0-.5-.06,2.59,2.59,0,0,0-1.94.73,2.87,2.87,0,0,0-.7,2.09v4.42H11.93v-9.11h2v1.33A3.53,3.53,0,0,1,17.2,213.41Z"/><path class="cls-2" d="M20.53,222.14a4.41,4.41,0,0,1-1.74-1.66,4.76,4.76,0,0,1-.62-2.42,4.69,4.69,0,0,1,.62-2.4A4.41,4.41,0,0,1,20.53,214a5.12,5.12,0,0,1,2.49-.59,5.2,5.2,0,0,1,2.51.59,4.45,4.45,0,0,1,1.73,1.66,4.69,4.69,0,0,1,.62,2.4,4.76,4.76,0,0,1-.62,2.42,4.45,4.45,0,0,1-1.73,1.66,5.2,5.2,0,0,1-2.51.6A5.12,5.12,0,0,1,20.53,222.14Zm4.43-2A3.15,3.15,0,0,0,25,216a2.78,2.78,0,0,0-3.88,0,3.19,3.19,0,0,0,0,4.13,2.8,2.8,0,0,0,3.88,0Z"/><path class="cls-2" d="M32.28,213v.55h2.51v1.7H32.35v7.34H30.22v-7.34h-1.5v-1.7h1.5V213a3.13,3.13,0,0,1,.85-2.32,3.29,3.29,0,0,1,2.41-.84,3.25,3.25,0,0,1,1.92.49l-.59,1.61a2.07,2.07,0,0,0-1.18-.38Q32.28,211.56,32.28,213Z"/><path class="cls-2" d="M44.62,218.75H37.47a2.44,2.44,0,0,0,1,1.59,3.24,3.24,0,0,0,2,.59,3.3,3.3,0,0,0,2.47-1L44,221.25a3.84,3.84,0,0,1-1.56,1.11,6.11,6.11,0,0,1-4.76-.22A4.28,4.28,0,0,1,36,220.48a4.66,4.66,0,0,1-.62-2.42,4.79,4.79,0,0,1,.6-2.39A4.35,4.35,0,0,1,37.62,214a4.9,4.9,0,0,1,2.42-.59,4.77,4.77,0,0,1,2.38.58,4.22,4.22,0,0,1,1.64,1.66,4.92,4.92,0,0,1,.59,2.46C44.65,218.26,44.64,218.47,44.62,218.75Zm-6.31-3a2.53,2.53,0,0,0-.86,1.61h5.17a2.52,2.52,0,0,0-.83-1.6,2.77,2.77,0,0,0-3.48,0Z"/><path class="cls-2" d="M47.35,222.45a5.23,5.23,0,0,1-1.69-.74l.82-1.62a5,5,0,0,0,1.47.66,6,6,0,0,0,1.7.25c1.27,0,1.91-.34,1.91-1a.66.66,0,0,0-.48-.66,7.88,7.88,0,0,0-1.57-.36,14.82,14.82,0,0,1-1.83-.39,2.87,2.87,0,0,1-1.23-.78,2.16,2.16,0,0,1-.52-1.54A2.44,2.44,0,0,1,47,214.18a4.94,4.94,0,0,1,2.93-.77,8.6,8.6,0,0,1,1.88.21,5.21,5.21,0,0,1,1.53.57l-.82,1.62a5.08,5.08,0,0,0-2.61-.68,2.85,2.85,0,0,0-1.42.28.84.84,0,0,0-.49.74.75.75,0,0,0,.52.73,9,9,0,0,0,1.62.4,12,12,0,0,1,1.79.39,2.91,2.91,0,0,1,1.2.75,2.08,2.08,0,0,1,.5,1.5A2.37,2.37,0,0,1,52.53,222a5.23,5.23,0,0,1-3,.77A8.21,8.21,0,0,1,47.35,222.45Z"/><path class="cls-2" d="M56.13,222.45a5.26,5.26,0,0,1-1.68-.74l.81-1.62a5,5,0,0,0,1.48.66,5.93,5.93,0,0,0,1.7.25c1.27,0,1.91-.34,1.91-1a.66.66,0,0,0-.49-.66A7.58,7.58,0,0,0,58.3,219a14.82,14.82,0,0,1-1.83-.39,2.82,2.82,0,0,1-1.23-.78,2.16,2.16,0,0,1-.52-1.54,2.44,2.44,0,0,1,1.08-2.08,4.92,4.92,0,0,1,2.93-.77,8.51,8.51,0,0,1,1.87.21,5.17,5.17,0,0,1,1.54.57l-.82,1.62a5.08,5.08,0,0,0-2.61-.68,2.85,2.85,0,0,0-1.42.28.84.84,0,0,0-.49.74.74.74,0,0,0,.52.73,8.82,8.82,0,0,0,1.61.4,11.48,11.48,0,0,1,1.79.39,2.88,2.88,0,0,1,1.21.75,2.12,2.12,0,0,1,.5,1.5A2.37,2.37,0,0,1,61.32,222a5.23,5.23,0,0,1-3,.77A8.34,8.34,0,0,1,56.13,222.45Z"/><path class="cls-2" d="M64.38,211.64a1.17,1.17,0,0,1-.4-.91,1.19,1.19,0,0,1,.4-.92,1.5,1.5,0,0,1,1.94,0,1.12,1.12,0,0,1,.39.88,1.29,1.29,0,0,1-.38.94,1.32,1.32,0,0,1-1,.39A1.38,1.38,0,0,1,64.38,211.64Zm-.11,1.87h2.14v9.11H64.27Z"/><path class="cls-2" d="M70.81,222.14a4.32,4.32,0,0,1-1.73-1.66,4.67,4.67,0,0,1-.63-2.42,4.6,4.6,0,0,1,.63-2.4A4.32,4.32,0,0,1,70.81,214a5.59,5.59,0,0,1,5,0,4.39,4.39,0,0,1,1.73,1.66,4.69,4.69,0,0,1,.62,2.4,4.76,4.76,0,0,1-.62,2.42,4.39,4.39,0,0,1-1.73,1.66,5.51,5.51,0,0,1-5,0Zm4.43-2a3.15,3.15,0,0,0,0-4.13,2.78,2.78,0,0,0-3.88,0,3.19,3.19,0,0,0,0,4.13,2.8,2.8,0,0,0,3.88,0Z"/><path class="cls-2" d="M88.14,214.41a4,4,0,0,1,1,3v5.22H87.05v-5a2.6,2.6,0,0,0-.56-1.8,2.1,2.1,0,0,0-1.61-.6A2.48,2.48,0,0,0,83,216a2.87,2.87,0,0,0-.68,2v4.61H80.21v-9.11h2v1.18a3.24,3.24,0,0,1,1.33-1,4.71,4.71,0,0,1,1.81-.32A3.79,3.79,0,0,1,88.14,214.41Z"/><path class="cls-2" d="M98.46,214.37a3.72,3.72,0,0,1,1.06,2.91v5.34h-2v-1.11a2.43,2.43,0,0,1-1.12.91,4.85,4.85,0,0,1-3.54,0,2.72,2.72,0,0,1-1.18-1,2.49,2.49,0,0,1-.42-1.41,2.4,2.4,0,0,1,.91-2A4.52,4.52,0,0,1,95,217.3h2.35v-.14a1.87,1.87,0,0,0-.57-1.47,2.49,2.49,0,0,0-1.7-.51,4.91,4.91,0,0,0-1.51.24,3.81,3.81,0,0,0-1.25.66l-.84-1.55a5.2,5.2,0,0,1,1.72-.83,7.53,7.53,0,0,1,2.14-.29A4.46,4.46,0,0,1,98.46,214.37Zm-1.95,6.45a2,2,0,0,0,.88-1v-1.06h-2.2c-1.23,0-1.84.41-1.84,1.21a1.06,1.06,0,0,0,.46.92,2.07,2.07,0,0,0,1.28.35A2.78,2.78,0,0,0,96.51,220.82Z"/><path class="cls-2" d="M102.25,210h2.14v12.66h-2.14Z"/><path class="cls-2" d="M114.52,212.55h-4v-1.87H120.7v1.87h-4v10.07h-2.22Z"/><path class="cls-2" d="M127.21,213.41v2a2.25,2.25,0,0,0-.49-.06,2.61,2.61,0,0,0-2,.73,2.91,2.91,0,0,0-.7,2.09v4.42h-2.13v-9.11h2v1.33A3.55,3.55,0,0,1,127.21,213.41Z"/><path class="cls-2" d="M135.53,214.37a3.72,3.72,0,0,1,1.07,2.91v5.34h-2v-1.11a2.53,2.53,0,0,1-1.12.91,4.41,4.41,0,0,1-1.75.32,4.33,4.33,0,0,1-1.79-.35,2.81,2.81,0,0,1-1.19-1,2.49,2.49,0,0,1-.42-1.41,2.41,2.41,0,0,1,.92-2,4.47,4.47,0,0,1,2.87-.74h2.36v-.14a1.84,1.84,0,0,0-.58-1.47,2.46,2.46,0,0,0-1.69-.51,4.82,4.82,0,0,0-1.51.24,3.76,3.76,0,0,0-1.26.66l-.83-1.55a5.1,5.1,0,0,1,1.72-.83,7.41,7.41,0,0,1,2.13-.29A4.46,4.46,0,0,1,135.53,214.37Zm-1.94,6.45a2.06,2.06,0,0,0,.88-1v-1.06h-2.21c-1.22,0-1.84.41-1.84,1.21a1.09,1.09,0,0,0,.46.92,2.11,2.11,0,0,0,1.28.35A2.82,2.82,0,0,0,133.59,220.82Z"/><path class="cls-2" d="M147.26,214.41a4,4,0,0,1,1,3v5.22h-2.13v-5a2.6,2.6,0,0,0-.56-1.8,2.1,2.1,0,0,0-1.61-.6,2.48,2.48,0,0,0-1.86.7,2.87,2.87,0,0,0-.68,2v4.61h-2.13v-9.11h2v1.18a3.24,3.24,0,0,1,1.33-1,4.71,4.71,0,0,1,1.81-.32A3.79,3.79,0,0,1,147.26,214.41Z"/><path class="cls-2" d="M151.66,222.45a5.26,5.26,0,0,1-1.68-.74l.81-1.62a5,5,0,0,0,1.48.66,5.93,5.93,0,0,0,1.7.25c1.27,0,1.91-.34,1.91-1a.66.66,0,0,0-.49-.66,7.58,7.58,0,0,0-1.56-.36,14.82,14.82,0,0,1-1.83-.39,2.87,2.87,0,0,1-1.23-.78,2.16,2.16,0,0,1-.52-1.54,2.44,2.44,0,0,1,1.08-2.08,4.92,4.92,0,0,1,2.93-.77,8.51,8.51,0,0,1,1.87.21,5.17,5.17,0,0,1,1.54.57l-.82,1.62a5.08,5.08,0,0,0-2.61-.68,2.83,2.83,0,0,0-1.42.28.84.84,0,0,0-.49.74.74.74,0,0,0,.52.73,8.82,8.82,0,0,0,1.61.4,11.48,11.48,0,0,1,1.79.39,2.88,2.88,0,0,1,1.21.75,2.12,2.12,0,0,1,.5,1.5,2.37,2.37,0,0,1-1.11,2.05,5.23,5.23,0,0,1-3,.77A8.34,8.34,0,0,1,151.66,222.45Z"/><path class="cls-2" d="M162.16,213v.55h2.51v1.7h-2.44v7.34h-2.14v-7.34h-1.5v-1.7h1.5V213a3.13,3.13,0,0,1,.86-2.32,3.93,3.93,0,0,1,4.33-.35l-.6,1.61a2,2,0,0,0-1.17-.38Q162.16,211.56,162.16,213Z"/><path class="cls-2" d="M167.57,222.14a4.32,4.32,0,0,1-1.73-1.66,4.67,4.67,0,0,1-.63-2.42,4.6,4.6,0,0,1,.63-2.4,4.32,4.32,0,0,1,1.73-1.66,5.59,5.59,0,0,1,5,0,4.45,4.45,0,0,1,1.73,1.66,4.69,4.69,0,0,1,.62,2.4,4.76,4.76,0,0,1-.62,2.42,4.45,4.45,0,0,1-1.73,1.66,5.51,5.51,0,0,1-5,0Zm4.43-2a3.15,3.15,0,0,0,0-4.13,2.78,2.78,0,0,0-3.88,0,3.19,3.19,0,0,0,0,4.13,2.8,2.8,0,0,0,3.88,0Z"/><path class="cls-2" d="M182.24,213.41v2a2.34,2.34,0,0,0-.5-.06,2.59,2.59,0,0,0-1.94.73,2.87,2.87,0,0,0-.7,2.09v4.42H177v-9.11h2v1.33A3.53,3.53,0,0,1,182.24,213.41Z"/><path class="cls-2" d="M198.28,214.4a4.07,4.07,0,0,1,1,3v5.22h-2.14v-5a2.65,2.65,0,0,0-.53-1.8,1.92,1.92,0,0,0-1.52-.6,2.22,2.22,0,0,0-1.72.7,2.93,2.93,0,0,0-.65,2v4.62H190.6v-5a2.7,2.7,0,0,0-.53-1.8,1.92,1.92,0,0,0-1.52-.6,2.26,2.26,0,0,0-1.73.69,2.92,2.92,0,0,0-.64,2v4.62h-2.13v-9.11h2v1.16a3.36,3.36,0,0,1,1.28-.94,4.27,4.27,0,0,1,1.71-.32,4,4,0,0,1,1.81.38,3,3,0,0,1,1.26,1.13,3.68,3.68,0,0,1,1.45-1.11,4.64,4.64,0,0,1,2-.4A3.72,3.72,0,0,1,198.28,214.4Z"/><path class="cls-2" d="M210.63,218.75h-7.15a2.48,2.48,0,0,0,1,1.59,3.24,3.24,0,0,0,2,.59,3.34,3.34,0,0,0,2.48-1l1.14,1.31a3.88,3.88,0,0,1-1.55,1.11,5.68,5.68,0,0,1-2.12.38,5.59,5.59,0,0,1-2.64-.6,4.36,4.36,0,0,1-1.77-1.66,4.76,4.76,0,0,1-.62-2.42,4.7,4.7,0,0,1,.61-2.39,4.28,4.28,0,0,1,1.68-1.67,4.85,4.85,0,0,1,2.42-.59,4.79,4.79,0,0,1,2.38.58,4.29,4.29,0,0,1,1.64,1.66,5,5,0,0,1,.59,2.46C210.67,218.26,210.65,218.47,210.63,218.75Zm-6.3-3a2.49,2.49,0,0,0-.86,1.61h5.16a2.52,2.52,0,0,0-.83-1.6,2.75,2.75,0,0,0-3.47,0Z"/><path class="cls-2" d="M218,213.41v2a2.25,2.25,0,0,0-.49-.06,2.57,2.57,0,0,0-1.94.73,2.87,2.87,0,0,0-.71,2.09v4.42h-2.13v-9.11h2v1.33A3.55,3.55,0,0,1,218,213.41Z"/><path class="cls-2" d="M220.48,222.45a5.23,5.23,0,0,1-1.69-.74l.82-1.62a5,5,0,0,0,1.47.66,6,6,0,0,0,1.7.25c1.27,0,1.91-.34,1.91-1a.66.66,0,0,0-.49-.66,7.58,7.58,0,0,0-1.56-.36,14.82,14.82,0,0,1-1.83-.39,2.87,2.87,0,0,1-1.23-.78,2.16,2.16,0,0,1-.52-1.54,2.44,2.44,0,0,1,1.08-2.08,4.94,4.94,0,0,1,2.93-.77,8.67,8.67,0,0,1,1.88.21,5.21,5.21,0,0,1,1.53.57l-.82,1.62a5.08,5.08,0,0,0-2.61-.68,2.85,2.85,0,0,0-1.42.28.84.84,0,0,0-.49.74.74.74,0,0,0,.52.73,9.05,9.05,0,0,0,1.61.4,11.91,11.91,0,0,1,1.8.39,2.91,2.91,0,0,1,1.2.75,2.12,2.12,0,0,1,.5,1.5,2.37,2.37,0,0,1-1.11,2.05,5.23,5.23,0,0,1-3,.77A8.21,8.21,0,0,1,220.48,222.45Z"/><path class="cls-3" d="M150.2,57.22C138.66,41,131.51,22.14,129,1.11L138.11,0c2.37,19.48,9,36.93,19.61,51.87Z"/><path class="cls-4" d="M32.38,92.91l-5.55-7.38C42.51,73.74,54.33,59.3,62,42.62l8.39,3.83C62.07,64.55,49.3,80.18,32.38,92.91Z"/><path class="cls-5" d="M156.55,139.14c-18.06-7.69-36.47-10.7-54.73-9L101,121c19.8-1.89,39.72,1.36,59.21,9.65Z"/><circle class="cls-6" cx="118.27" cy="11.88" r="7.11"/><circle class="cls-7" cx="47.04" cy="96.78" r="7.11"/><path class="cls-8" d="M161.05,70.21A107.23,107.23,0,0,0,84.27,25.88l.88-9.18a116.45,116.45,0,0,1,83.41,48.15Z"/><path class="cls-9" d="M67.77,123.05a116.48,116.48,0,0,1,0-96.31l8.39,3.82a107.25,107.25,0,0,0,0,88.66Z"/><path class="cls-10" d="M85.15,133.08l-.88-9.18A106.07,106.07,0,0,0,127.46,110a106.11,106.11,0,0,0,33.59-30.47l7.51,5.36A115.36,115.36,0,0,1,132.07,118,115.36,115.36,0,0,1,85.15,133.08Z"/><circle class="cls-11" cx="156.18" cy="116.01" r="7.11"/><path class="cls-12" d="M142.21,74.89a2,2,0,0,0-.38-1.19,70.2,70.2,0,0,0-49.2-28.4,2,2,0,0,0-1.22.26h0a2,2,0,0,0-.84.93,70.11,70.11,0,0,0,0,56.8,2,2,0,0,0,.84.93h0a1.93,1.93,0,0,0,1.22.26,70.2,70.2,0,0,0,49.2-28.4,2,2,0,0,0,.38-1.19Z"/></g></g></svg>