<svg xmlns="http://www.w3.org/2000/svg" viewBox="0 0 390.23 139.14"><g id="Layer_2" data-name="Layer 2"><g id="Layer_1-2" data-name="Layer 1"><path d="M163.45,44.62h15.07a21.56,21.56,0,0,1,9.79,2.15,15.79,15.79,0,0,1,6.65,6,17.18,17.18,0,0,1,2.36,9,17.19,17.19,0,0,1-2.36,9,15.86,15.86,0,0,1-6.65,6,21.56,21.56,0,0,1-9.79,2.14H163.45Zm14.77,29.05a14.72,14.72,0,0,0,6.67-1.45,10.38,10.38,0,0,0,4.43-4.14,13.28,13.28,0,0,0,0-12.45,10.38,10.38,0,0,0-4.43-4.14A14.59,14.59,0,0,0,178.22,50h-8.37V73.67Z"/><path d="M203.82,47.41a3.64,3.64,0,0,1,0-5.27,3.92,3.92,0,0,1,2.8-1.06,4.09,4.09,0,0,1,2.81,1,3.26,3.26,0,0,1,1.13,2.53,3.72,3.72,0,0,1-1.11,2.74,3.8,3.8,0,0,1-2.83,1.1A4,4,0,0,1,203.82,47.41Zm-.3,5.39h6.16V79.08h-6.16Z"/><path d="M233,52.5v5.86a7.73,7.73,0,0,0-1.43-.15,7.43,7.43,0,0,0-5.61,2.09,8.34,8.34,0,0,0-2,6V79.08h-6.15V52.8h5.85v3.84C225.38,53.88,228.49,52.5,233,52.5Z"/><path d="M262.54,67.91H241.92a7.13,7.13,0,0,0,2.83,4.6,9.27,9.27,0,0,0,5.68,1.7,9.56,9.56,0,0,0,7.14-2.86l3.3,3.79a11,11,0,0,1-4.48,3.2,17.68,17.68,0,0,1-13.74-.64,12.35,12.35,0,0,1-5.09-4.8,13.52,13.52,0,0,1-1.8-7A13.82,13.82,0,0,1,237.51,59a12.43,12.43,0,0,1,4.85-4.8,14.25,14.25,0,0,1,7-1.72,13.83,13.83,0,0,1,6.87,1.7A12,12,0,0,1,260.94,59a14.56,14.56,0,0,1,1.7,7.12C262.64,66.51,262.61,67.12,262.54,67.91Zm-18.19-8.74a7.35,7.35,0,0,0-2.48,4.65h14.91a7.21,7.21,0,0,0-2.41-4.62,7.31,7.31,0,0,0-5-1.78A7.45,7.45,0,0,0,244.35,59.17Z"/><path d="M273.27,77.7a12.61,12.61,0,0,1-5.07-4.8,14.18,14.18,0,0,1,0-13.9,12.78,12.78,0,0,1,5.05-4.78,15.47,15.47,0,0,1,7.36-1.72,14.15,14.15,0,0,1,6.81,1.58,10.25,10.25,0,0,1,4.41,4.52l-4.73,2.76a7.46,7.46,0,0,0-2.83-2.73,7.69,7.69,0,0,0-3.71-.91A7.79,7.79,0,0,0,274.85,60a8,8,0,0,0-2.27,6,8.1,8.1,0,0,0,2.24,6,7.8,7.8,0,0,0,5.74,2.24,7.69,7.69,0,0,0,3.71-.91,7.46,7.46,0,0,0,2.83-2.73l4.73,2.75a10.67,10.67,0,0,1-4.46,4.56,13.93,13.93,0,0,1-6.76,1.6A15.41,15.41,0,0,1,273.27,77.7Z"/><path d="M313.29,77.65A7,7,0,0,1,310.66,79a11.76,11.76,0,0,1-3.28.45,9.28,9.28,0,0,1-6.69-2.27c-1.58-1.51-2.36-3.71-2.36-6.59V57.92H294V53h4.34V47h6.15v6h7v4.93h-7v12.5a4.17,4.17,0,0,0,.93,2.93,3.54,3.54,0,0,0,2.71,1,5.37,5.37,0,0,0,3.45-1.09Z"/><path d="M318.66,47.41a3.62,3.62,0,0,1,0-5.27,3.92,3.92,0,0,1,2.8-1.06,4.09,4.09,0,0,1,2.81,1,3.26,3.26,0,0,1,1.13,2.53,3.72,3.72,0,0,1-1.11,2.74,3.82,3.82,0,0,1-2.83,1.1A4,4,0,0,1,318.66,47.41Zm-.3,5.39h6.15V79.08h-6.15Z"/><path d="M337.21,77.7a12.4,12.4,0,0,1-5-4.8,14.32,14.32,0,0,1,0-13.9,12.55,12.55,0,0,1,5-4.78,16,16,0,0,1,14.42,0,12.58,12.58,0,0,1,5,4.78,14.32,14.32,0,0,1,0,13.9,12.43,12.43,0,0,1-5,4.8,15.89,15.89,0,0,1-14.42,0ZM350,71.9a8.15,8.15,0,0,0,2.22-6A8.15,8.15,0,0,0,350,60a7.52,7.52,0,0,0-5.61-2.26A7.43,7.43,0,0,0,338.81,60a8.22,8.22,0,0,0-2.19,6,8.22,8.22,0,0,0,2.19,6,7.47,7.47,0,0,0,5.59,2.26A7.56,7.56,0,0,0,350,71.9Z"/><path d="M387.22,55.41c2,1.93,3,4.8,3,8.61V79.08h-6.16V64.81a7.42,7.42,0,0,0-1.62-5.2,6,6,0,0,0-4.63-1.74,7.1,7.1,0,0,0-5.36,2,8.1,8.1,0,0,0-2,5.88V79.08h-6.16V52.8h5.86v3.39A9.65,9.65,0,0,1,374,53.44a13.68,13.68,0,0,1,5.22-.94A11,11,0,0,1,387.22,55.41Z"/><path d="M171.07,97.15a3.91,3.91,0,0,1,1.77,1.47,4.08,4.08,0,0,1,.61,2.27,4.13,4.13,0,0,1-.61,2.26,3.91,3.91,0,0,1-1.77,1.47,6.64,6.64,0,0,1-2.7.51h-2.7v3.45h-2.22V96.64h4.92A6.64,6.64,0,0,1,171.07,97.15Zm-.6,5.49a2.43,2.43,0,0,0,0-3.51,3.41,3.41,0,0,0-2.2-.62h-2.6v4.75h2.6A3.41,3.41,0,0,0,170.47,102.64Z"/><path d="M180.65,99.37v2a2.2,2.2,0,0,0-.49-.05,2.6,2.6,0,0,0-1.95.72,2.91,2.91,0,0,0-.7,2.09v4.42h-2.13V99.47h2v1.33A3.55,3.55,0,0,1,180.65,99.37Z"/><path d="M184,108.1a4.32,4.32,0,0,1-1.73-1.66,4.65,4.65,0,0,1-.62-2.41,4.6,4.6,0,0,1,.62-2.41A4.32,4.32,0,0,1,184,100a5.59,5.59,0,0,1,5,0,4.32,4.32,0,0,1,1.73,1.66,4.6,4.6,0,0,1,.62,2.41,4.65,4.65,0,0,1-.62,2.41A4.32,4.32,0,0,1,189,108.1a5.51,5.51,0,0,1-5,0Zm4.44-2a3.19,3.19,0,0,0,0-4.13,2.82,2.82,0,0,0-3.89,0,3.22,3.22,0,0,0,0,4.13,2.82,2.82,0,0,0,3.89,0Z"/><path d="M195.74,99v.55h2.5v1.7H195.8v7.34h-2.13v-7.34h-1.5v-1.7h1.5V99a3.13,3.13,0,0,1,.85-2.31,3.25,3.25,0,0,1,2.41-.85,3.3,3.3,0,0,1,1.93.5l-.6,1.6a2,2,0,0,0-1.18-.38C196.18,97.52,195.74,98,195.74,99Z"/><path d="M208.07,104.71h-7.15a2.48,2.48,0,0,0,1,1.59,3.18,3.18,0,0,0,2,.59,3.34,3.34,0,0,0,2.48-1l1.14,1.32a4,4,0,0,1-1.55,1.1,5.68,5.68,0,0,1-2.12.38,5.59,5.59,0,0,1-2.64-.6,4.36,4.36,0,0,1-1.77-1.66,5,5,0,0,1,0-4.81,4.28,4.28,0,0,1,1.68-1.67,5,5,0,0,1,2.42-.59,4.7,4.7,0,0,1,2.38.59,4.2,4.2,0,0,1,1.64,1.65,5,5,0,0,1,.59,2.47C208.11,104.22,208.09,104.43,208.07,104.71Zm-6.3-3a2.49,2.49,0,0,0-.86,1.61h5.17a2.51,2.51,0,0,0-2.58-2.22A2.59,2.59,0,0,0,201.77,101.68Z"/><path d="M210.8,108.41a5.56,5.56,0,0,1-1.69-.73l.82-1.62a5.17,5.17,0,0,0,1.48.65,5.92,5.92,0,0,0,1.69.25c1.28,0,1.92-.34,1.92-1a.67.67,0,0,0-.49-.66,7.75,7.75,0,0,0-1.56-.36,13.69,13.69,0,0,1-1.84-.39,2.78,2.78,0,0,1-1.22-.78,2.14,2.14,0,0,1-.52-1.54,2.44,2.44,0,0,1,1.08-2.08,5,5,0,0,1,2.92-.77,8.53,8.53,0,0,1,1.88.21,5.17,5.17,0,0,1,1.54.57l-.82,1.62a5.13,5.13,0,0,0-2.61-.68,2.9,2.9,0,0,0-1.43.28.85.85,0,0,0-.48.74.73.73,0,0,0,.52.73,7.88,7.88,0,0,0,1.61.4,11.75,11.75,0,0,1,1.79.39,2.78,2.78,0,0,1,1.2.75,2.1,2.1,0,0,1,.51,1.5,2.37,2.37,0,0,1-1.11,2.05,5.25,5.25,0,0,1-3,.77A8.34,8.34,0,0,1,210.8,108.41Z"/><path d="M219.59,108.41a5.46,5.46,0,0,1-1.69-.73l.82-1.62a5.23,5.23,0,0,0,1.47.65,6,6,0,0,0,1.7.25c1.28,0,1.91-.34,1.91-1a.66.66,0,0,0-.48-.66,7.92,7.92,0,0,0-1.56-.36,13,13,0,0,1-1.84-.39,2.87,2.87,0,0,1-1.23-.78,2.19,2.19,0,0,1-.52-1.54,2.42,2.42,0,0,1,1.09-2.08,5,5,0,0,1,2.92-.77,8.6,8.6,0,0,1,1.88.21,5.1,5.1,0,0,1,1.53.57l-.81,1.62a5.14,5.14,0,0,0-2.62-.68,2.85,2.85,0,0,0-1.42.28.86.86,0,0,0-.49.74.75.75,0,0,0,.52.73,8.2,8.2,0,0,0,1.62.4,12,12,0,0,1,1.79.39,2.84,2.84,0,0,1,1.2.75,2.09,2.09,0,0,1,.5,1.5,2.38,2.38,0,0,1-1.1,2.05,5.25,5.25,0,0,1-3,.77A8.29,8.29,0,0,1,219.59,108.41Z"/><path d="M227.83,97.6a1.2,1.2,0,0,1-.39-.91,1.18,1.18,0,0,1,.39-.91,1.35,1.35,0,0,1,1-.37,1.41,1.41,0,0,1,1,.35,1.1,1.1,0,0,1,.4.88,1.26,1.26,0,0,1-.39.94,1.3,1.3,0,0,1-1,.39A1.35,1.35,0,0,1,227.83,97.6Zm-.1,1.87h2.13v9.11h-2.13Z"/><path d="M234.26,108.1a4.32,4.32,0,0,1-1.73-1.66,4.65,4.65,0,0,1-.62-2.41,4.6,4.6,0,0,1,.62-2.41,4.32,4.32,0,0,1,1.73-1.66,5.59,5.59,0,0,1,5,0,4.32,4.32,0,0,1,1.73,1.66,4.61,4.61,0,0,1,.63,2.41,4.66,4.66,0,0,1-.63,2.41,4.32,4.32,0,0,1-1.73,1.66,5.51,5.51,0,0,1-5,0Zm4.44-2a3.15,3.15,0,0,0,0-4.13,2.61,2.61,0,0,0-1.95-.78,2.57,2.57,0,0,0-1.93.78,3.19,3.19,0,0,0,0,4.13,2.57,2.57,0,0,0,1.93.78A2.61,2.61,0,0,0,238.7,106.09Z"/><path d="M251.6,100.37a4,4,0,0,1,1,3v5.22H250.5v-5a2.56,2.56,0,0,0-.56-1.8,2.08,2.08,0,0,0-1.6-.6,2.45,2.45,0,0,0-1.86.7,2.83,2.83,0,0,0-.68,2v4.61h-2.14V99.47h2v1.18a3.48,3.48,0,0,1,1.33-1,4.94,4.94,0,0,1,1.81-.32A3.83,3.83,0,0,1,251.6,100.37Z"/><path d="M261.91,100.33a3.72,3.72,0,0,1,1.07,2.91v5.34h-2v-1.11a2.45,2.45,0,0,1-1.11.91,4.41,4.41,0,0,1-1.75.32,4.3,4.3,0,0,1-1.79-.35,2.75,2.75,0,0,1-1.19-1,2.49,2.49,0,0,1-.42-1.41,2.43,2.43,0,0,1,.91-2,4.52,4.52,0,0,1,2.88-.74h2.35v-.14a1.87,1.87,0,0,0-.57-1.47,2.46,2.46,0,0,0-1.69-.51,4.82,4.82,0,0,0-1.51.24,3.6,3.6,0,0,0-1.26.67l-.84-1.56a5.25,5.25,0,0,1,1.73-.83,7.41,7.41,0,0,1,2.13-.29A4.46,4.46,0,0,1,261.91,100.33ZM260,106.78a2,2,0,0,0,.87-1v-1.06h-2.2c-1.23,0-1.84.41-1.84,1.21a1.09,1.09,0,0,0,.46.93,2.18,2.18,0,0,0,1.28.34A2.72,2.72,0,0,0,260,106.78Z"/><path d="M265.71,95.92h2.13v12.66h-2.13Z"/><path d="M278,98.51h-4V96.64h10.13v1.87h-4v10.07H278Z"/><path d="M290.67,99.37v2a2.29,2.29,0,0,0-.5-.05,2.57,2.57,0,0,0-1.94.72,2.87,2.87,0,0,0-.7,2.09v4.42H285.4V99.47h2v1.33A3.53,3.53,0,0,1,290.67,99.37Z"/><path d="M299,100.33a3.72,3.72,0,0,1,1.06,2.91v5.34h-2v-1.11a2.43,2.43,0,0,1-1.12.91,4.85,4.85,0,0,1-3.54,0,2.72,2.72,0,0,1-1.18-1,2.49,2.49,0,0,1-.42-1.41,2.4,2.4,0,0,1,.91-2,4.52,4.52,0,0,1,2.88-.74h2.35v-.14a1.87,1.87,0,0,0-.57-1.47,2.49,2.49,0,0,0-1.7-.51,4.91,4.91,0,0,0-1.51.24,3.65,3.65,0,0,0-1.25.67l-.84-1.56a5.2,5.2,0,0,1,1.72-.83,7.48,7.48,0,0,1,2.14-.29A4.46,4.46,0,0,1,299,100.33ZM297,106.78a1.94,1.94,0,0,0,.88-1v-1.06h-2.2c-1.23,0-1.84.41-1.84,1.21a1.09,1.09,0,0,0,.46.93,2.14,2.14,0,0,0,1.28.34A2.69,2.69,0,0,0,297,106.78Z"/><path d="M310.72,100.37a4,4,0,0,1,1,3v5.22h-2.14v-5a2.56,2.56,0,0,0-.56-1.8,2.08,2.08,0,0,0-1.6-.6,2.45,2.45,0,0,0-1.86.7,2.83,2.83,0,0,0-.68,2v4.61h-2.14V99.47h2v1.18a3.48,3.48,0,0,1,1.33-1,4.94,4.94,0,0,1,1.81-.32A3.83,3.83,0,0,1,310.72,100.37Z"/><path d="M315.12,108.41a5.46,5.46,0,0,1-1.69-.73l.82-1.62a5.23,5.23,0,0,0,1.47.65,6,6,0,0,0,1.7.25c1.28,0,1.91-.34,1.91-1a.66.66,0,0,0-.48-.66,7.92,7.92,0,0,0-1.56-.36,13,13,0,0,1-1.84-.39,2.87,2.87,0,0,1-1.23-.78,2.19,2.19,0,0,1-.52-1.54,2.42,2.42,0,0,1,1.09-2.08,5,5,0,0,1,2.92-.77,8.6,8.6,0,0,1,1.88.21,5.1,5.1,0,0,1,1.53.57l-.81,1.62a5.14,5.14,0,0,0-2.62-.68,2.85,2.85,0,0,0-1.42.28.86.86,0,0,0-.49.74.75.75,0,0,0,.52.73,8.2,8.2,0,0,0,1.62.4,12,12,0,0,1,1.79.39,2.84,2.84,0,0,1,1.2.75,2.09,2.09,0,0,1,.5,1.5,2.38,2.38,0,0,1-1.1,2.05,5.25,5.25,0,0,1-3,.77A8.29,8.29,0,0,1,315.12,108.41Z"/><path d="M325.61,99v.55h2.51v1.7h-2.44v7.34h-2.13v-7.34h-1.5v-1.7h1.5V99a3.09,3.09,0,0,1,.85-2.31,3.88,3.88,0,0,1,4.33-.35l-.59,1.6a2.07,2.07,0,0,0-1.18-.38Q325.61,97.52,325.61,99Z"/><path d="M331,108.1a4.32,4.32,0,0,1-1.73-1.66,4.65,4.65,0,0,1-.62-2.41,4.6,4.6,0,0,1,.62-2.41A4.32,4.32,0,0,1,331,100a5.59,5.59,0,0,1,5,0,4.32,4.32,0,0,1,1.73,1.66,4.6,4.6,0,0,1,.62,2.41,4.65,4.65,0,0,1-.62,2.41A4.32,4.32,0,0,1,336,108.1a5.51,5.51,0,0,1-5,0Zm4.44-2a3.19,3.19,0,0,0,0-4.13,2.82,2.82,0,0,0-3.89,0,3.22,3.22,0,0,0,0,4.13,2.82,2.82,0,0,0,3.89,0Z"/><path d="M345.69,99.37v2a2.2,2.2,0,0,0-.49-.05,2.6,2.6,0,0,0-1.95.72,2.91,2.91,0,0,0-.7,2.09v4.42h-2.13V99.47h2v1.33A3.55,3.55,0,0,1,345.69,99.37Z"/><path d="M361.73,100.37a4,4,0,0,1,1,3v5.22h-2.13v-5a2.7,2.7,0,0,0-.53-1.8,1.93,1.93,0,0,0-1.52-.6,2.21,2.21,0,0,0-1.72.7,2.88,2.88,0,0,0-.65,2v4.62h-2.14v-5a2.7,2.7,0,0,0-.52-1.8,1.93,1.93,0,0,0-1.52-.6,2.2,2.2,0,0,0-1.73.7,2.88,2.88,0,0,0-.64,2v4.62H347.5V99.47h2v1.16a3.36,3.36,0,0,1,1.28-.94,4.45,4.45,0,0,1,1.71-.32,4.09,4.09,0,0,1,1.82.38,3.05,3.05,0,0,1,1.25,1.14A3.85,3.85,0,0,1,357,99.77a4.67,4.67,0,0,1,2-.4A3.69,3.69,0,0,1,361.73,100.37Z"/><path d="M374.08,104.71h-7.14a2.44,2.44,0,0,0,1,1.59,3.16,3.16,0,0,0,2,.59,3.32,3.32,0,0,0,2.47-1l1.15,1.32a3.92,3.92,0,0,1-1.56,1.1,6.11,6.11,0,0,1-4.76-.22,4.28,4.28,0,0,1-1.76-1.66,4.66,4.66,0,0,1-.63-2.41,4.81,4.81,0,0,1,.61-2.4,4.28,4.28,0,0,1,1.68-1.67,5,5,0,0,1,2.42-.59,4.7,4.7,0,0,1,2.38.59,4.13,4.13,0,0,1,1.64,1.65,5,5,0,0,1,.59,2.47A6.13,6.13,0,0,1,374.08,104.71Zm-6.3-3a2.53,2.53,0,0,0-.86,1.61h5.17a2.49,2.49,0,0,0-.84-1.6,2.52,2.52,0,0,0-1.74-.62A2.59,2.59,0,0,0,367.78,101.68Z"/><path d="M381.44,99.37v2a2.29,2.29,0,0,0-.5-.05,2.58,2.58,0,0,0-1.94.72,2.87,2.87,0,0,0-.7,2.09v4.42h-2.13V99.47h2v1.33A3.53,3.53,0,0,1,381.44,99.37Z"/><path d="M383.93,108.41a5.46,5.46,0,0,1-1.69-.73l.82-1.62a5.17,5.17,0,0,0,1.48.65,5.92,5.92,0,0,0,1.69.25c1.28,0,1.91-.34,1.91-1a.66.66,0,0,0-.48-.66,7.92,7.92,0,0,0-1.56-.36,13.35,13.35,0,0,1-1.84-.39,2.87,2.87,0,0,1-1.23-.78,2.19,2.19,0,0,1-.52-1.54,2.42,2.42,0,0,1,1.09-2.08,5,5,0,0,1,2.92-.77,8.6,8.6,0,0,1,1.88.21,5.17,5.17,0,0,1,1.54.57l-.82,1.62a5.13,5.13,0,0,0-2.61-.68,2.9,2.9,0,0,0-1.43.28.85.85,0,0,0-.48.74.73.73,0,0,0,.52.73,7.88,7.88,0,0,0,1.61.4,11.75,11.75,0,0,1,1.79.39,2.78,2.78,0,0,1,1.2.75,2.1,2.1,0,0,1,.51,1.5,2.37,2.37,0,0,1-1.11,2.05,5.25,5.25,0,0,1-3,.77A8.29,8.29,0,0,1,383.93,108.41Z"/><path d="M123.37,57.22C111.83,41,104.68,22.14,102.12,1.11L111.28,0c2.37,19.48,9,36.93,19.6,51.87Z"/><path d="M5.54,92.91,0,85.53C15.68,73.74,27.5,59.3,35.12,42.62l8.39,3.83C35.24,64.55,22.47,80.18,5.54,92.91Z"/><path d="M129.71,139.14c-18.05-7.69-36.46-10.7-54.72-9L74.12,121c19.8-1.89,39.72,1.36,59.21,9.65Z"/><circle cx="91.44" cy="11.88" r="7.11"/><circle cx="20.21" cy="96.78" r="7.11"/><path d="M134.22,70.21A107.28,107.28,0,0,0,57.44,25.88l.88-9.18a116.45,116.45,0,0,1,83.41,48.15Z"/><path d="M40.94,123.05a116.48,116.48,0,0,1,0-96.31l8.39,3.82a107.25,107.25,0,0,0,0,88.66Z"/><path d="M58.32,133.08l-.88-9.18A106.08,106.08,0,0,0,100.62,110a106,106,0,0,0,33.6-30.47l7.51,5.36A115.36,115.36,0,0,1,105.24,118,115.36,115.36,0,0,1,58.32,133.08Z"/><circle cx="129.35" cy="116.01" r="7.11"/><path d="M115.38,74.89A2,2,0,0,0,115,73.7,70.15,70.15,0,0,0,65.8,45.3a2,2,0,0,0-1.23.26h0a2,2,0,0,0-.83.93,70.11,70.11,0,0,0,0,56.8,2,2,0,0,0,.83.93h0a2,2,0,0,0,1.23.26A70.15,70.15,0,0,0,115,76.08a2,2,0,0,0,.39-1.19Z"/></g></g></svg>